<svg width="30" height="29" viewBox="0 0 30 29" fill="none" xmlns="http://www.w3.org/2000/svg">
    <path d="M7.47556 6.64585L6.99223 4.22919H4.57556L7.47556 6.64585ZM7.47556 6.64585H26.3256L21.4922 16.3125H9.4089M7.47556 6.64585L9.4089 16.3125M9.4089 16.3125L6.63819 19.0832C5.87694 19.8445 6.41585 21.1459 7.49248 21.1459H21.4922M21.4922 21.1459C20.8513 21.1459 20.2366 21.4005 19.7834 21.8537C19.3302 22.3069 19.0756 22.9216 19.0756 23.5625C19.0756 24.2035 19.3302 24.8181 19.7834 25.2714C20.2366 25.7246 20.8513 25.9792 21.4922 25.9792C22.1332 25.9792 22.7479 25.7246 23.2011 25.2714C23.6543 24.8181 23.9089 24.2035 23.9089 23.5625C23.9089 22.9216 23.6543 22.3069 23.2011 21.8537C22.7479 21.4005 22.1332 21.1459 21.4922 21.1459ZM11.8256 23.5625C11.8256 24.2035 11.5709 24.8181 11.1177 25.2714C10.6645 25.7246 10.0498 25.9792 9.4089 25.9792C8.76796 25.9792 8.15327 25.7246 7.70005 25.2714C7.24684 24.8181 6.99223 24.2035 6.99223 23.5625C6.99223 22.9216 7.24684 22.3069 7.70005 21.8537C8.15327 21.4005 8.76796 21.1459 9.4089 21.1459C10.0498 21.1459 10.6645 21.4005 11.1177 21.8537C11.5709 22.3069 11.8256 22.9216 11.8256 23.5625Z" stroke="#A4A4A4" stroke-width="2" stroke-linecap="round" stroke-linejoin="round"/>
</svg>
