<svg width="21" height="19" viewBox="0 0 21 19" fill="none" xmlns="http://www.w3.org/2000/svg">
    <path d="M10.951 2.05852C9.85839 1.05629 8.42829 0.500047 6.94403 0.5C6.15842 0.500816 5.38073 0.656612 4.65571 0.958421C3.9307 1.26023 3.27266 1.7021 2.71949 2.25859C0.360043 4.62237 0.361046 8.31961 2.72149 10.6734L10.0736 18.0078C10.244 18.3069 10.5729 18.5 10.951 18.5C11.1062 18.4985 11.2589 18.4607 11.3968 18.3896C11.5347 18.3186 11.654 18.2163 11.7451 18.0909L19.1804 10.6734C21.5409 8.31861 21.5409 4.62237 19.1784 2.25458C18.6255 1.69912 17.968 1.25815 17.2437 0.957036C16.5194 0.655922 15.7426 0.5006 14.9579 0.5C13.4737 0.500242 12.0437 1.05646 10.951 2.05852ZM17.7606 3.66906C19.3279 5.24058 19.3289 7.6954 17.7626 9.25892L10.951 16.0542L4.13937 9.25892C2.57309 7.6954 2.57409 5.24058 4.13736 3.67306C4.89944 2.91681 5.89616 2.50067 6.94403 2.50067C7.99189 2.50067 8.9846 2.91681 9.74066 3.67106L10.242 4.17122C10.3351 4.2642 10.4456 4.33796 10.5672 4.38829C10.6889 4.43862 10.8193 4.46452 10.951 4.46452C11.0827 4.46452 11.2131 4.43862 11.3347 4.38829C11.4564 4.33796 11.5669 4.2642 11.6599 4.17122L12.1613 3.67106C13.6774 2.16155 16.2464 2.16556 17.7606 3.66906Z" fill="#A4A4A4"/>
</svg>
