<svg width="15" height="15" viewBox="0 0 15 15" fill="none" xmlns="http://www.w3.org/2000/svg">
<path d="M4.375 13.75H2.5C2.16848 13.75 1.85054 13.6183 1.61612 13.3839C1.3817 13.1495 1.25 12.8315 1.25 12.5V8.125C1.25 7.79348 1.3817 7.47554 1.61612 7.24112C1.85054 7.0067 2.16848 6.875 2.5 6.875H4.375M8.75 5.625V3.125C8.75 2.62772 8.55246 2.15081 8.20083 1.79917C7.84919 1.44754 7.37228 1.25 6.875 1.25L4.375 6.875V13.75H11.425C11.7265 13.7534 12.019 13.6478 12.2487 13.4525C12.4784 13.2573 12.6298 12.9856 12.675 12.6875L13.5375 7.0625C13.5647 6.88335 13.5526 6.70043 13.5021 6.52641C13.4516 6.35239 13.3638 6.19143 13.2449 6.0547C13.126 5.91796 12.9788 5.80871 12.8135 5.73451C12.6482 5.66031 12.4687 5.62295 12.2875 5.625H8.75Z" stroke="#979797" stroke-width="1.5" stroke-linecap="round" stroke-linejoin="round"/>
</svg>
