<svg width="32" height="32" viewBox="0 0 32 32" fill="none" xmlns="http://www.w3.org/2000/svg">
<path d="M32 16C32 7.16344 24.8366 0 16 0C7.16344 0 0 7.16344 0 16C0 24.8366 7.16344 32 16 32C24.8366 32 32 24.8366 32 16Z" fill="white"/>
<path fill-rule="evenodd" clip-rule="evenodd" d="M23.8285 16.1818C23.8285 15.6145 23.7775 15.069 23.683 14.5454H16.1484V17.64H20.4539C20.2684 18.64 19.7048 19.4872 18.8575 20.0545V22.0618H21.443C22.9557 20.6691 23.8285 18.6181 23.8285 16.1818Z" fill="#4285F4"/>
<path fill-rule="evenodd" clip-rule="evenodd" d="M16.1496 24C18.3096 24 20.1205 23.2836 21.4442 22.0618L18.8587 20.0545C18.1423 20.5345 17.226 20.8181 16.1496 20.8181C14.066 20.8181 12.3023 19.4109 11.6732 17.52H9.00049V19.5927C10.3169 22.2072 13.0223 24 16.1496 24Z" fill="#34A853"/>
<path fill-rule="evenodd" clip-rule="evenodd" d="M11.6721 17.52C11.5121 17.04 11.4212 16.5272 11.4212 16C11.4212 15.4727 11.5121 14.96 11.6721 14.48V12.4072H8.99935C8.45753 13.4872 8.14844 14.709 8.14844 16C8.14844 17.2909 8.45753 18.5127 8.99935 19.5927L11.6721 17.52Z" fill="#FBBC05"/>
<path fill-rule="evenodd" clip-rule="evenodd" d="M16.1496 11.1818C17.3241 11.1818 18.3787 11.5855 19.2078 12.3782L21.5023 10.0836C20.1169 8.79273 18.306 8 16.1496 8C13.0223 8 10.3169 9.79273 9.00049 12.4073L11.6732 14.48C12.3023 12.5891 14.066 11.1818 16.1496 11.1818Z" fill="#EA4335"/>
</svg>
