<svg width="20" height="19" viewBox="0 0 20 19" fill="none" xmlns="http://www.w3.org/2000/svg">
    <path d="M9.31127 0.252634C9.49427 0.0901219 9.73052 0.000366211 9.97527 0.000366211C10.22 0.000366211 10.4563 0.0901219 10.6393 0.252634L19.6393 8.25263C19.8274 8.43135 19.9387 8.6762 19.9496 8.93545C19.9606 9.19471 19.8703 9.44807 19.6979 9.64201C19.5256 9.83596 19.2845 9.95529 19.0258 9.97482C18.767 9.99434 18.5108 9.91251 18.3113 9.74663L17.9753 9.44963V16.9996C17.9753 17.5301 17.7646 18.0388 17.3895 18.4138C17.0144 18.7889 16.5057 18.9996 15.9753 18.9996H12.9753H6.97527H3.97527C3.44484 18.9996 2.93613 18.7889 2.56105 18.4138C2.18598 18.0388 1.97527 17.5301 1.97527 16.9996V9.44963L1.63927 9.74663C1.43973 9.91251 1.18352 9.99434 0.924768 9.97482C0.666017 9.95529 0.424985 9.83596 0.252592 9.64201C0.080198 9.44807 -0.0100576 9.19471 0.000891447 8.93545C0.0118405 8.6762 0.123137 8.43135 0.311269 8.25263L9.31127 0.252634ZM3.97527 7.66963V16.9996H6.97527V11.9996C6.97527 11.7344 7.08063 11.4801 7.26816 11.2925C7.4557 11.105 7.71005 10.9996 7.97527 10.9996H11.9753C12.2405 10.9996 12.4948 11.105 12.6824 11.2925C12.8699 11.4801 12.9753 11.7344 12.9753 11.9996V16.9996H15.9753V7.67063L9.97527 2.33763L3.97527 7.66963ZM10.9753 16.9996V12.9996H8.97527V16.9996H10.9753Z" fill="url(#paint0_linear_3_4262)"/>
    <defs>
        <linearGradient id="paint0_linear_3_4262" x1="-1.59606" y1="34.4365" x2="24.7996" y2="30.5976" gradientUnits="userSpaceOnUse">
            <stop offset="0.445628" stop-color="#F3AF00"/>
            <stop offset="1" stop-color="#FF7A00"/>
        </linearGradient>
    </defs>
</svg>
