<svg width="16" height="17" viewBox="0 0 16 17" fill="none" xmlns="http://www.w3.org/2000/svg">
    <path d="M8.00035 2.33824C7.12629 1.46267 5.98221 0.976725 4.7948 0.976685C4.16631 0.977397 3.54416 1.1135 2.96415 1.37717C2.38413 1.64084 1.85771 2.02686 1.41517 2.51303C-0.47239 4.57809 -0.471588 7.80808 1.41677 9.8644L7.29843 16.2719C7.43481 16.5332 7.69793 16.7019 8.00035 16.7019C8.12453 16.7006 8.24669 16.6676 8.35703 16.6055C8.46737 16.5434 8.56281 16.454 8.63569 16.3445L14.5839 9.8644C16.4723 7.8072 16.4723 4.57809 14.5823 2.50953C14.14 2.02426 13.614 1.63902 13.0346 1.37596C12.4551 1.1129 11.8337 0.977209 11.2059 0.976685C10.0185 0.976896 8.8745 1.46282 8.00035 2.33824ZM13.448 3.74525C14.7019 5.11817 14.7027 7.26275 13.4496 8.62868L8.00035 14.5652L2.55107 8.62868C1.29805 7.26275 1.29885 5.11817 2.54946 3.74874C3.15913 3.08806 3.95651 2.72451 4.7948 2.72451C5.63309 2.72451 6.42725 3.08806 7.03211 3.74699L7.4332 4.18395C7.50764 4.26518 7.59604 4.32962 7.69336 4.37359C7.79068 4.41755 7.895 4.44018 8.00035 4.44018C8.10571 4.44018 8.21003 4.41755 8.30734 4.37359C8.40466 4.32962 8.49307 4.26518 8.5675 4.18395L8.9686 3.74699C10.1815 2.42826 12.2367 2.43175 13.448 3.74525Z" fill="#626262"/>
</svg>
