<svg width="68" height="63" viewBox="0 0 68 63" fill="none" xmlns="http://www.w3.org/2000/svg">
<path d="M23.0396 41.3868L28.8742 62.1884C5.54822 57.3679 14.922 26.4198 36.2309 30.1611C57.5398 33.9024 58.208 61.281 34.9625 62.1884L32.9331 54.0707L40.0361 50.9338C43.3339 48.9971 43.8412 39.1037 34.9625 37.489L23.0396 41.3868Z" fill="#FF7A00" stroke="#FF7A00"/>
<ellipse cx="56.8888" cy="30.8331" rx="6.41368" ry="9.77179" transform="rotate(35.5896 56.8888 30.8331)" fill="#FF7A00"/>
<ellipse cx="10.1683" cy="29.8736" rx="6.41368" ry="9.77179" transform="rotate(-25.1607 10.1683 29.8736)" fill="#FF7A00"/>
<ellipse cx="43.5262" cy="15.4525" rx="7.46083" ry="12.4333" transform="rotate(20.359 43.5262 15.4525)" fill="#FF7A00"/>
<ellipse cx="23.416" cy="15.5846" rx="7.79901" ry="12.9953" transform="rotate(-18.0633 23.416 15.5846)" fill="#FF7A00"/>
<path d="M29.6353 43.1102L32.3223 42.496C34.3894 42.0235 36.4481 43.3161 36.9206 45.3832C37.393 47.4502 36.1004 49.5089 34.0334 49.9814L31.3463 50.5956L29.6353 43.1102Z" fill="#FF7A00"/>
</svg>
