<svg width="19" height="19" viewBox="0 0 19 19" fill="none" xmlns="http://www.w3.org/2000/svg">
    <path d="M0.950531 2.5C0.950531 1.96957 1.16124 1.46086 1.53632 1.08579C1.91139 0.710714 2.4201 0.5 2.95053 0.5H6.95053C7.48096 0.5 7.98967 0.710714 8.36474 1.08579C8.73982 1.46086 8.95053 1.96957 8.95053 2.5V6.5C8.95053 7.03043 8.73982 7.53914 8.36474 7.91421C7.98967 8.28929 7.48096 8.5 6.95053 8.5H2.95053C2.4201 8.5 1.91139 8.28929 1.53632 7.91421C1.16124 7.53914 0.950531 7.03043 0.950531 6.5V2.5ZM6.95053 2.5H2.95053V6.5H6.95053V2.5ZM10.9505 2.5C10.9505 1.96957 11.1612 1.46086 11.5363 1.08579C11.9114 0.710714 12.4201 0.5 12.9505 0.5H16.9505C17.481 0.5 17.9897 0.710714 18.3647 1.08579C18.7398 1.46086 18.9505 1.96957 18.9505 2.5V6.5C18.9505 7.03043 18.7398 7.53914 18.3647 7.91421C17.9897 8.28929 17.481 8.5 16.9505 8.5H12.9505C12.4201 8.5 11.9114 8.28929 11.5363 7.91421C11.1612 7.53914 10.9505 7.03043 10.9505 6.5V2.5ZM16.9505 2.5H12.9505V6.5H16.9505V2.5ZM0.950531 12.5C0.950531 11.9696 1.16124 11.4609 1.53632 11.0858C1.91139 10.7107 2.4201 10.5 2.95053 10.5H6.95053C7.48096 10.5 7.98967 10.7107 8.36474 11.0858C8.73982 11.4609 8.95053 11.9696 8.95053 12.5V16.5C8.95053 17.0304 8.73982 17.5391 8.36474 17.9142C7.98967 18.2893 7.48096 18.5 6.95053 18.5H2.95053C2.4201 18.5 1.91139 18.2893 1.53632 17.9142C1.16124 17.5391 0.950531 17.0304 0.950531 16.5V12.5ZM6.95053 12.5H2.95053V16.5H6.95053V12.5ZM10.9505 12.5C10.9505 11.9696 11.1612 11.4609 11.5363 11.0858C11.9114 10.7107 12.4201 10.5 12.9505 10.5H16.9505C17.481 10.5 17.9897 10.7107 18.3647 11.0858C18.7398 11.4609 18.9505 11.9696 18.9505 12.5V16.5C18.9505 17.0304 18.7398 17.5391 18.3647 17.9142C17.9897 18.2893 17.481 18.5 16.9505 18.5H12.9505C12.4201 18.5 11.9114 18.2893 11.5363 17.9142C11.1612 17.5391 10.9505 17.0304 10.9505 16.5V12.5ZM16.9505 12.5H12.9505V16.5H16.9505V12.5Z" fill="#A4A4A4"/>
</svg>
