<svg width="63" height="14" viewBox="0 0 63 14" fill="none" xmlns="http://www.w3.org/2000/svg">
<path d="M2.754 13.18C2.142 13.18 1.638 13.036 1.242 12.748C0.846 12.46 0.648 12.064 0.648 11.56C0.648 11.068 0.858 10.672 1.278 10.372C1.698 10.06 2.244 9.904 2.916 9.904C3.168 9.904 3.396 9.916 3.6 9.94C3.816 9.964 4.014 10 4.194 10.048C4.194 9.688 4.146 9.358 4.05 9.058C3.954 8.758 3.816 8.434 3.636 8.086H1.116V6.772H2.844C2.58 6.304 2.394 5.896 2.286 5.548C2.19 5.188 2.142 4.822 2.142 4.45C2.142 3.754 2.31 3.148 2.646 2.632C2.994 2.104 3.474 1.69 4.086 1.39C4.698 1.09 5.412 0.94 6.228 0.94C8.376 0.94 9.69 1.948 10.17 3.964L8.154 4.828C7.998 4.168 7.764 3.67 7.452 3.334C7.152 2.998 6.714 2.83 6.138 2.83C5.574 2.83 5.118 2.98 4.77 3.28C4.434 3.568 4.266 3.988 4.266 4.54C4.266 4.84 4.314 5.134 4.41 5.422C4.518 5.698 4.71 6.094 4.986 6.61C5.01 6.67 5.034 6.724 5.058 6.772H8.586V8.086H5.634C5.73 8.35 5.802 8.614 5.85 8.878C5.898 9.13 5.922 9.376 5.922 9.616C5.922 10.012 5.874 10.396 5.778 10.768C6.078 10.948 6.372 11.11 6.66 11.254C6.96 11.386 7.308 11.452 7.704 11.452C8.148 11.452 8.472 11.326 8.676 11.074C8.892 10.81 8.994 10.402 8.982 9.85L10.638 9.994C10.71 10.978 10.512 11.758 10.044 12.334C9.588 12.898 8.946 13.18 8.118 13.18C7.506 13.18 6.966 13.06 6.498 12.82C6.03 12.58 5.586 12.322 5.166 12.046C4.914 12.382 4.584 12.658 4.176 12.874C3.78 13.078 3.306 13.18 2.754 13.18ZM2.106 11.542C2.106 11.722 2.172 11.86 2.304 11.956C2.448 12.052 2.634 12.1 2.862 12.1C3.198 12.1 3.456 12.034 3.636 11.902C3.816 11.758 3.954 11.572 4.05 11.344C3.858 11.248 3.666 11.176 3.474 11.128C3.282 11.068 3.078 11.038 2.862 11.038C2.358 11.038 2.106 11.206 2.106 11.542ZM17.1377 0.975999C18.4097 0.975999 19.4237 1.264 20.1797 1.84C20.9477 2.404 21.3317 3.184 21.3317 4.18C21.3317 4.804 21.1757 5.35 20.8637 5.818C20.5637 6.274 20.1257 6.616 19.5497 6.844V6.862C20.2457 7.114 20.7917 7.48 21.1877 7.96C21.5837 8.44 21.7817 9.046 21.7817 9.778C21.7817 10.81 21.3677 11.638 20.5397 12.262C19.7117 12.874 18.5777 13.18 17.1377 13.18C15.7217 13.18 14.5937 12.874 13.7537 12.262C12.9257 11.638 12.5117 10.81 12.5117 9.778C12.5117 9.058 12.7097 8.458 13.1057 7.978C13.5017 7.486 14.0537 7.114 14.7617 6.862V6.844C14.1857 6.616 13.7417 6.274 13.4297 5.818C13.1177 5.35 12.9617 4.804 12.9617 4.18C12.9617 3.184 13.3397 2.404 14.0957 1.84C14.8637 1.264 15.8777 0.975999 17.1377 0.975999ZM17.1377 2.884C16.5737 2.884 16.1297 3.022 15.8057 3.298C15.4817 3.574 15.3197 3.958 15.3197 4.45C15.3197 4.93 15.4817 5.314 15.8057 5.602C16.1417 5.878 16.5857 6.016 17.1377 6.016C17.7017 6.016 18.1457 5.878 18.4697 5.602C18.8057 5.314 18.9737 4.93 18.9737 4.45C18.9737 3.958 18.8117 3.574 18.4877 3.298C18.1637 3.022 17.7137 2.884 17.1377 2.884ZM17.1377 11.254C17.8217 11.254 18.3557 11.104 18.7397 10.804C19.1357 10.492 19.3337 10.066 19.3337 9.526C19.3337 8.986 19.1357 8.56 18.7397 8.248C18.3437 7.936 17.8097 7.78 17.1377 7.78C16.4777 7.78 15.9437 7.936 15.5357 8.248C15.1397 8.56 14.9417 8.986 14.9417 9.526C14.9417 10.066 15.1397 10.492 15.5357 10.804C15.9317 11.104 16.4657 11.254 17.1377 11.254ZM28.8385 13.18C27.3145 13.18 26.1385 12.664 25.3105 11.632C24.4945 10.588 24.0865 9.064 24.0865 7.06C24.0865 5.056 24.4945 3.538 25.3105 2.506C26.1385 1.462 27.3145 0.94 28.8385 0.94C30.3625 0.94 31.5325 1.462 32.3485 2.506C33.1765 3.538 33.5905 5.056 33.5905 7.06C33.5905 9.064 33.1765 10.588 32.3485 11.632C31.5325 12.664 30.3625 13.18 28.8385 13.18ZM28.8385 11.182C29.6065 11.182 30.1765 10.852 30.5485 10.192C30.9205 9.52 31.1065 8.476 31.1065 7.06C31.1065 5.644 30.9205 4.606 30.5485 3.946C30.1765 3.274 29.6065 2.938 28.8385 2.938C28.0705 2.938 27.5005 3.274 27.1285 3.946C26.7565 4.606 26.5705 5.644 26.5705 7.06C26.5705 8.476 26.7565 9.52 27.1285 10.192C27.5005 10.852 28.0705 11.182 28.8385 11.182ZM37.1922 10.246C37.6722 10.246 38.0502 10.378 38.3262 10.642C38.6142 10.906 38.7582 11.26 38.7582 11.704C38.7582 12.16 38.6142 12.52 38.3262 12.784C38.0502 13.036 37.6722 13.162 37.1922 13.162C36.7002 13.162 36.3162 13.036 36.0402 12.784C35.7642 12.52 35.6262 12.16 35.6262 11.704C35.6262 11.26 35.7642 10.906 36.0402 10.642C36.3162 10.378 36.7002 10.246 37.1922 10.246ZM45.537 13.18C44.013 13.18 42.837 12.664 42.009 11.632C41.193 10.588 40.785 9.064 40.785 7.06C40.785 5.056 41.193 3.538 42.009 2.506C42.837 1.462 44.013 0.94 45.537 0.94C47.061 0.94 48.231 1.462 49.047 2.506C49.875 3.538 50.289 5.056 50.289 7.06C50.289 9.064 49.875 10.588 49.047 11.632C48.231 12.664 47.061 13.18 45.537 13.18ZM45.537 11.182C46.305 11.182 46.875 10.852 47.247 10.192C47.619 9.52 47.805 8.476 47.805 7.06C47.805 5.644 47.619 4.606 47.247 3.946C46.875 3.274 46.305 2.938 45.537 2.938C44.769 2.938 44.199 3.274 43.827 3.946C43.455 4.606 43.269 5.644 43.269 7.06C43.269 8.476 43.455 9.52 43.827 10.192C44.199 10.852 44.769 11.182 45.537 11.182ZM57.3404 13.18C55.8164 13.18 54.6404 12.664 53.8124 11.632C52.9964 10.588 52.5884 9.064 52.5884 7.06C52.5884 5.056 52.9964 3.538 53.8124 2.506C54.6404 1.462 55.8164 0.94 57.3404 0.94C58.8644 0.94 60.0344 1.462 60.8504 2.506C61.6784 3.538 62.0924 5.056 62.0924 7.06C62.0924 9.064 61.6784 10.588 60.8504 11.632C60.0344 12.664 58.8644 13.18 57.3404 13.18ZM57.3404 11.182C58.1084 11.182 58.6784 10.852 59.0504 10.192C59.4224 9.52 59.6084 8.476 59.6084 7.06C59.6084 5.644 59.4224 4.606 59.0504 3.946C58.6784 3.274 58.1084 2.938 57.3404 2.938C56.5724 2.938 56.0024 3.274 55.6304 3.946C55.2584 4.606 55.0724 5.644 55.0724 7.06C55.0724 8.476 55.2584 9.52 55.6304 10.192C56.0024 10.852 56.5724 11.182 57.3404 11.182Z" fill="#464646"/>
</svg>
