<svg width="16" height="17" viewBox="0 0 16 17" fill="none" xmlns="http://www.w3.org/2000/svg">
    <path d="M15.1477 10.8523L13.625 9.32963V7.3125C13.6233 5.91853 13.1047 4.57473 12.1696 3.54093C11.2345 2.50713 9.9493 1.85677 8.5625 1.71562V0.5625H7.4375V1.71562C6.0507 1.85677 4.76549 2.50713 3.83039 3.54093C2.8953 4.57473 2.37674 5.91853 2.375 7.3125V9.32963L0.852312 10.8523C0.746816 10.9578 0.687532 11.1008 0.6875 11.25V12.9375C0.6875 13.0867 0.746763 13.2298 0.852252 13.3352C0.957742 13.4407 1.10082 13.5 1.25 13.5H5.1875V13.9371C5.17526 14.6507 5.42679 15.3437 5.89388 15.8833C6.36097 16.423 7.01076 16.7713 7.71875 16.8615C8.10979 16.9003 8.50461 16.8568 8.87783 16.7338C9.25105 16.6108 9.5944 16.4111 9.88579 16.1475C10.1772 15.8838 10.4102 15.5621 10.5698 15.2031C10.7294 14.844 10.8121 14.4555 10.8125 14.0625V13.5H14.75C14.8992 13.5 15.0423 13.4407 15.1477 13.3352C15.2532 13.2298 15.3125 13.0867 15.3125 12.9375V11.25C15.3125 11.1008 15.2532 10.9578 15.1477 10.8523ZM9.6875 14.0625C9.6875 14.5101 9.50971 14.9393 9.19324 15.2557C8.87678 15.5722 8.44755 15.75 8 15.75C7.55245 15.75 7.12322 15.5722 6.80676 15.2557C6.49029 14.9393 6.3125 14.5101 6.3125 14.0625V13.5H9.6875V14.0625ZM14.1875 12.375H1.8125V11.4829L3.33519 9.96019C3.44068 9.85472 3.49997 9.71167 3.5 9.5625V7.3125C3.5 6.11903 3.97411 4.97443 4.81802 4.13052C5.66193 3.28661 6.80653 2.8125 8 2.8125C9.19347 2.8125 10.3381 3.28661 11.182 4.13052C12.0259 4.97443 12.5 6.11903 12.5 7.3125V9.5625C12.5 9.71167 12.5593 9.85472 12.6648 9.96019L14.1875 11.4829V12.375Z" fill="white"/>
</svg>
