<svg width="61" height="12" viewBox="0 0 61 12" fill="none" xmlns="http://www.w3.org/2000/svg">
    <path d="M2.295 11.15C1.785 11.15 1.375 11.03 1.065 10.79C0.755 10.55 0.6 10.23 0.6 9.83C0.6 9.45 0.765 9.13 1.095 8.87C1.435 8.61 1.89 8.48 2.46 8.48C2.7 8.48 2.915 8.5 3.105 8.54C3.305 8.57 3.49 8.615 3.66 8.675C3.66 8.645 3.66 8.61 3.66 8.57C3.66 8.26 3.62 7.975 3.54 7.715C3.46 7.455 3.335 7.175 3.165 6.875H1.08V5.825H2.565C2.355 5.435 2.205 5.09 2.115 4.79C2.025 4.49 1.98 4.185 1.98 3.875C1.98 3.285 2.12 2.77 2.4 2.33C2.68 1.89 3.065 1.55 3.555 1.31C4.055 1.07 4.62 0.95 5.25 0.95C6.92 0.95 7.96 1.76 8.37 3.38L7.035 4.01C6.895 3.45 6.685 3.02 6.405 2.72C6.135 2.42 5.73 2.27 5.19 2.27C4.65 2.27 4.215 2.41 3.885 2.69C3.565 2.97 3.405 3.375 3.405 3.905C3.405 4.195 3.445 4.465 3.525 4.715C3.605 4.955 3.76 5.29 3.99 5.72C4.01 5.76 4.025 5.795 4.035 5.825H7.08V6.875H4.515C4.615 7.135 4.69 7.39 4.74 7.64C4.8 7.88 4.83 8.115 4.83 8.345C4.83 8.655 4.795 8.955 4.725 9.245C4.995 9.425 5.265 9.59 5.535 9.74C5.805 9.89 6.12 9.965 6.48 9.965C6.88 9.965 7.17 9.855 7.35 9.635C7.54 9.405 7.635 9.045 7.635 8.555L8.805 8.6C8.835 9.41 8.665 10.04 8.295 10.49C7.925 10.93 7.405 11.15 6.735 11.15C6.235 11.15 5.79 11.05 5.4 10.85C5.01 10.65 4.64 10.435 4.29 10.205C4.1 10.475 3.84 10.7 3.51 10.88C3.18 11.06 2.775 11.15 2.295 11.15ZM1.755 9.83C1.755 9.98 1.815 10.095 1.935 10.175C2.065 10.255 2.23 10.295 2.43 10.295C2.72 10.295 2.95 10.24 3.12 10.13C3.29 10.02 3.415 9.875 3.495 9.695C3.325 9.605 3.15 9.535 2.97 9.485C2.79 9.425 2.605 9.395 2.415 9.395C1.975 9.395 1.755 9.54 1.755 9.83ZM10.6518 11V9.815C11.6018 9.155 12.3968 8.565 13.0368 8.045C13.6868 7.515 14.2068 7.035 14.5968 6.605C14.9868 6.165 15.2668 5.745 15.4368 5.345C15.6168 4.945 15.7068 4.54 15.7068 4.13C15.7068 3.61 15.5368 3.185 15.1968 2.855C14.8668 2.515 14.4118 2.345 13.8318 2.345C13.2118 2.345 12.7168 2.555 12.3468 2.975C11.9868 3.385 11.7818 3.95 11.7318 4.67L10.3368 4.025C10.4268 3.085 10.7868 2.34 11.4168 1.79C12.0468 1.23 12.8818 0.95 13.9218 0.95C14.6518 0.95 15.2718 1.09 15.7818 1.37C16.2918 1.65 16.6818 2.025 16.9518 2.495C17.2218 2.965 17.3568 3.49 17.3568 4.07C17.3568 4.7 17.2018 5.31 16.8918 5.9C16.5818 6.48 16.0918 7.075 15.4218 7.685C14.7518 8.295 13.8718 8.95 12.7818 9.65V9.68C12.9018 9.67 13.0668 9.66 13.2768 9.65C13.4868 9.64 13.6968 9.635 13.9068 9.635C14.1168 9.625 14.2868 9.62 14.4168 9.62H17.5368V11H10.6518ZM23.4155 11.15C22.2255 11.15 21.2905 10.72 20.6105 9.86C19.9405 8.99 19.6055 7.72 19.6055 6.05C19.6055 4.38 19.9405 3.115 20.6105 2.255C21.2905 1.385 22.2255 0.95 23.4155 0.95C24.6055 0.95 25.5405 1.385 26.2205 2.255C26.9005 3.115 27.2405 4.38 27.2405 6.05C27.2405 7.72 26.9005 8.99 26.2205 9.86C25.5405 10.72 24.6055 11.15 23.4155 11.15ZM23.4155 9.785C24.8755 9.785 25.6055 8.54 25.6055 6.05C25.6055 3.56 24.8755 2.315 23.4155 2.315C21.9655 2.315 21.2405 3.56 21.2405 6.05C21.2405 8.54 21.9655 9.785 23.4155 9.785ZM33.1344 11.15C31.9444 11.15 31.0094 10.72 30.3294 9.86C29.6594 8.99 29.3244 7.72 29.3244 6.05C29.3244 4.38 29.6594 3.115 30.3294 2.255C31.0094 1.385 31.9444 0.95 33.1344 0.95C34.3244 0.95 35.2594 1.385 35.9394 2.255C36.6194 3.115 36.9594 4.38 36.9594 6.05C36.9594 7.72 36.6194 8.99 35.9394 9.86C35.2594 10.72 34.3244 11.15 33.1344 11.15ZM33.1344 9.785C34.5944 9.785 35.3244 8.54 35.3244 6.05C35.3244 3.56 34.5944 2.315 33.1344 2.315C31.6844 2.315 30.9594 3.56 30.9594 6.05C30.9594 8.54 31.6844 9.785 33.1344 9.785ZM39.9054 8.975C40.2454 8.975 40.5154 9.075 40.7154 9.275C40.9254 9.465 41.0304 9.725 41.0304 10.055C41.0304 10.385 40.9254 10.65 40.7154 10.85C40.5154 11.05 40.2454 11.15 39.9054 11.15C39.5554 11.15 39.2754 11.05 39.0654 10.85C38.8654 10.65 38.7654 10.385 38.7654 10.055C38.7654 9.725 38.8654 9.465 39.0654 9.275C39.2754 9.075 39.5554 8.975 39.9054 8.975ZM46.669 11.15C45.479 11.15 44.544 10.72 43.864 9.86C43.194 8.99 42.859 7.72 42.859 6.05C42.859 4.38 43.194 3.115 43.864 2.255C44.544 1.385 45.479 0.95 46.669 0.95C47.859 0.95 48.794 1.385 49.474 2.255C50.154 3.115 50.494 4.38 50.494 6.05C50.494 7.72 50.154 8.99 49.474 9.86C48.794 10.72 47.859 11.15 46.669 11.15ZM46.669 9.785C48.129 9.785 48.859 8.54 48.859 6.05C48.859 3.56 48.129 2.315 46.669 2.315C45.219 2.315 44.494 3.56 44.494 6.05C44.494 8.54 45.219 9.785 46.669 9.785ZM56.3879 11.15C55.1979 11.15 54.2629 10.72 53.5829 9.86C52.9129 8.99 52.5779 7.72 52.5779 6.05C52.5779 4.38 52.9129 3.115 53.5829 2.255C54.2629 1.385 55.1979 0.95 56.3879 0.95C57.5779 0.95 58.5129 1.385 59.1929 2.255C59.8729 3.115 60.2129 4.38 60.2129 6.05C60.2129 7.72 59.8729 8.99 59.1929 9.86C58.5129 10.72 57.5779 11.15 56.3879 11.15ZM56.3879 9.785C57.8479 9.785 58.5779 8.54 58.5779 6.05C58.5779 3.56 57.8479 2.315 56.3879 2.315C54.9379 2.315 54.2129 3.56 54.2129 6.05C54.2129 8.54 54.9379 9.785 56.3879 9.785Z" fill="#A4A4A4"/>
    <path d="M0 6.5H61.0979V7.25H0V6.5Z" fill="#A4A4A4"/>
</svg>
