<svg width="18" height="19" viewBox="0 0 18 19" fill="none" xmlns="http://www.w3.org/2000/svg">
    <path d="M17.2836 15.1894C16.8571 14.179 16.2383 13.2612 15.4615 12.4872C14.6871 11.7109 13.7697 11.092 12.7601 10.6646C12.751 10.6601 12.742 10.6578 12.733 10.6533C14.1413 9.63568 15.0569 7.97814 15.0569 6.10804C15.0569 3.01005 12.5476 0.5 9.45053 0.5C6.35348 0.5 3.84419 3.01005 3.84419 6.10804C3.84419 7.97814 4.75974 9.63568 6.16811 10.6555C6.15906 10.66 6.15002 10.6623 6.14098 10.6668C5.12822 11.0942 4.21945 11.707 3.43953 12.4894C2.66348 13.2641 2.04474 14.1817 1.61747 15.1917C1.19772 16.1805 0.971344 17.2406 0.950588 18.3146C0.949984 18.3387 0.954216 18.3627 0.963034 18.3852C0.971852 18.4077 0.985078 18.4281 1.00193 18.4454C1.01879 18.4627 1.03893 18.4764 1.06117 18.4858C1.08341 18.4952 1.1073 18.5 1.13144 18.5H2.48781C2.58728 18.5 2.6664 18.4209 2.66866 18.3236C2.71387 16.5779 3.41467 14.943 4.65349 13.7038C5.93526 12.4216 7.63751 11.7161 9.45053 11.7161C11.2636 11.7161 12.9658 12.4216 14.2476 13.7038C15.4864 14.943 16.1872 16.5779 16.2324 18.3236C16.2347 18.4231 16.3138 18.5 16.4133 18.5H17.7696C17.7938 18.5 17.8177 18.4952 17.8399 18.4858C17.8621 18.4764 17.8823 18.4627 17.8991 18.4454C17.916 18.4281 17.9292 18.4077 17.938 18.3852C17.9468 18.3627 17.9511 18.3387 17.9505 18.3146C17.9279 17.2337 17.7041 16.1822 17.2836 15.1894ZM9.45053 9.99749C8.41291 9.99749 7.43632 9.59271 6.70161 8.85779C5.96691 8.12286 5.56226 7.14598 5.56226 6.10804C5.56226 5.0701 5.96691 4.09322 6.70161 3.35829C7.43632 2.62337 8.41291 2.21859 9.45053 2.21859C10.4882 2.21859 11.4647 2.62337 12.1994 3.35829C12.9342 4.09322 13.3388 5.0701 13.3388 6.10804C13.3388 7.14598 12.9342 8.12286 12.1994 8.85779C11.4647 9.59271 10.4882 9.99749 9.45053 9.99749Z" fill="#A4A4A4"/>
</svg>
