<svg width="84" height="16" viewBox="0 0 84 16" fill="none" xmlns="http://www.w3.org/2000/svg">
<path d="M14.1891 5.51717L10.2219 4.94061L8.44847 1.3453C8.40003 1.24686 8.32034 1.16717 8.2219 1.11874C7.97503 0.996862 7.67503 1.09842 7.55159 1.3453L5.77815 4.94061L1.81097 5.51717C1.70159 5.5328 1.60159 5.58436 1.52503 5.66249C1.43247 5.75762 1.38146 5.88561 1.38322 6.01833C1.38498 6.15106 1.43936 6.27765 1.5344 6.3703L4.40472 9.16874L3.72659 13.1203C3.71069 13.2122 3.72086 13.3068 3.75595 13.3932C3.79105 13.4796 3.84966 13.5545 3.92514 13.6093C4.00062 13.6641 4.08995 13.6967 4.183 13.7034C4.27605 13.71 4.3691 13.6904 4.45159 13.6469L8.00003 11.7812L11.5485 13.6469C11.6453 13.6984 11.7578 13.7156 11.8657 13.6969C12.1375 13.65 12.3203 13.3922 12.2735 13.1203L11.5953 9.16874L14.4657 6.3703C14.5438 6.29374 14.5953 6.19374 14.611 6.08436C14.6532 5.81092 14.4625 5.5578 14.1891 5.51717Z" fill="#FFB800"/>
<path d="M30.8059 5.51717L26.8387 4.94061L25.0653 1.3453C25.0168 1.24686 24.9372 1.16717 24.8387 1.11874C24.5919 0.996862 24.2918 1.09842 24.1684 1.3453L22.395 4.94061L18.4278 5.51717C18.3184 5.5328 18.2184 5.58436 18.1419 5.66249C18.0493 5.75762 17.9983 5.88561 18 6.01833C18.0018 6.15106 18.0562 6.27765 18.1512 6.3703L21.0215 9.16874L20.3434 13.1203C20.3275 13.2122 20.3377 13.3068 20.3728 13.3932C20.4079 13.4796 20.4665 13.5545 20.542 13.6093C20.6174 13.6641 20.7068 13.6967 20.7998 13.7034C20.8929 13.71 20.9859 13.6904 21.0684 13.6469L24.6168 11.7812L28.1653 13.6469C28.2622 13.6984 28.3747 13.7156 28.4825 13.6969C28.7544 13.65 28.9372 13.3922 28.8903 13.1203L28.2122 9.16874L31.0825 6.3703C31.1606 6.29374 31.2122 6.19374 31.2278 6.08436C31.27 5.81092 31.0793 5.5578 30.8059 5.51717Z" fill="#FFB800"/>
<path d="M47.8059 5.51717L43.8387 4.94061L42.0653 1.3453C42.0168 1.24686 41.9372 1.16717 41.8387 1.11874C41.5919 0.996862 41.2918 1.09842 41.1684 1.3453L39.395 4.94061L35.4278 5.51717C35.3184 5.5328 35.2184 5.58436 35.1419 5.66249C35.0493 5.75762 34.9983 5.88561 35 6.01833C35.0018 6.15106 35.0562 6.27765 35.1512 6.3703L38.0215 9.16874L37.3434 13.1203C37.3275 13.2122 37.3377 13.3068 37.3728 13.3932C37.4079 13.4796 37.4665 13.5545 37.542 13.6093C37.6174 13.6641 37.7068 13.6967 37.7998 13.7034C37.8929 13.71 37.9859 13.6904 38.0684 13.6469L41.6168 11.7812L45.1653 13.6469C45.2622 13.6984 45.3747 13.7156 45.4825 13.6969C45.7544 13.65 45.9372 13.3922 45.8903 13.1203L45.2122 9.16874L48.0825 6.3703C48.1606 6.29374 48.2122 6.19374 48.2278 6.08436C48.27 5.81092 48.0793 5.5578 47.8059 5.51717Z" fill="#FFB800"/>
<path d="M64.8059 5.51717L60.8387 4.94061L59.0653 1.3453C59.0168 1.24686 58.9372 1.16717 58.8387 1.11874C58.5919 0.996862 58.2918 1.09842 58.1684 1.3453L56.395 4.94061L52.4278 5.51717C52.3184 5.5328 52.2184 5.58436 52.1419 5.66249C52.0493 5.75762 51.9983 5.88561 52 6.01833C52.0018 6.15106 52.0562 6.27765 52.1512 6.3703L55.0215 9.16874L54.3434 13.1203C54.3275 13.2122 54.3377 13.3068 54.3728 13.3932C54.4079 13.4796 54.4665 13.5545 54.542 13.6093C54.6174 13.6641 54.7068 13.6967 54.7998 13.7034C54.8929 13.71 54.9859 13.6904 55.0684 13.6469L58.6168 11.7812L62.1653 13.6469C62.2622 13.6984 62.3747 13.7156 62.4825 13.6969C62.7544 13.65 62.9372 13.3922 62.8903 13.1203L62.2122 9.16874L65.0825 6.3703C65.1606 6.29374 65.2122 6.19374 65.2278 6.08436C65.27 5.81092 65.0793 5.5578 64.8059 5.51717Z" fill="#FFB800"/>
<path d="M81.8059 5.51717L77.8387 4.94061L76.0653 1.3453C76.0168 1.24686 75.9372 1.16717 75.8387 1.11874C75.5919 0.996862 75.2918 1.09842 75.1684 1.3453L73.395 4.94061L69.4278 5.51717C69.3184 5.5328 69.2184 5.58436 69.1419 5.66249C69.0493 5.75762 68.9983 5.88561 69 6.01833C69.0018 6.15106 69.0562 6.27765 69.1512 6.3703L72.0215 9.16874L71.3434 13.1203C71.3275 13.2122 71.3377 13.3068 71.3728 13.3932C71.4079 13.4796 71.4665 13.5545 71.542 13.6093C71.6174 13.6641 71.7068 13.6967 71.7998 13.7034C71.8929 13.71 71.9859 13.6904 72.0684 13.6469L75.6168 11.7812L79.1653 13.6469C79.2622 13.6984 79.3747 13.7156 79.4825 13.6969C79.7544 13.65 79.9372 13.3922 79.8903 13.1203L79.2122 9.16874L82.0825 6.3703C82.1606 6.29374 82.2122 6.19374 82.2278 6.08436C82.27 5.81092 82.0793 5.5578 81.8059 5.51717Z" fill="#FFB800"/>
</svg>
